<svg width="94" height="30" viewBox="0 0 94 30" fill="none" xmlns="http://www.w3.org/2000/svg">
<path d="M38.033 3.11468C37.021 3.1231 36.0174 3.31664 35.0734 3.68689C34.1719 4.03189 33.3385 4.53678 32.6156 5.18472C32.386 5.38667 31.7907 6.00095 31.3484 6.48059C31.5355 6.72462 31.7056 6.96865 31.8672 7.22951C32.1393 7.66708 32.3775 8.12148 32.5816 8.5927C32.8282 9.15649 33.0153 9.74553 33.1429 10.343C33.5001 11.9754 33.4575 13.6752 33.0153 15.2909C33.4661 15.6443 33.9508 15.9388 34.4696 16.1744C33.9933 16.3427 33.6191 16.5699 33.364 16.8644C33.1174 17.1253 32.9728 17.4535 32.9388 17.8069C32.9303 18.1519 33.0323 18.4969 33.2364 18.7746C33.449 19.0944 33.8147 19.3468 34.308 19.5319C32.7006 19.9442 31.544 20.5669 30.8296 21.3916C30.1153 22.2247 29.7666 23.2513 29.7581 24.4882C29.7496 25.2792 29.9537 26.0534 30.3449 26.735C30.7616 27.4418 31.3484 28.0393 32.0458 28.4768C32.7857 28.9565 33.6872 29.3351 34.7247 29.6044C35.8728 29.8821 37.055 30.0167 38.2456 29.9999C39.4192 30.0167 40.5844 29.8821 41.7155 29.6044C42.753 29.3351 43.629 28.9565 44.3689 28.4684C45.0577 28.0224 45.6446 27.4166 46.0613 26.7181C46.4525 26.045 46.6566 25.2792 46.6481 24.4966C46.6481 22.9399 46.0103 21.6861 44.7346 20.7436C43.4589 19.8012 41.6559 19.2206 39.3342 19.0186C38.6453 18.9597 38.135 18.8335 37.7949 18.6484C37.4547 18.4632 37.2846 18.2613 37.2846 18.0509C37.2846 17.8405 37.4547 17.6218 37.7949 17.403C38.135 17.1842 38.6538 17.0327 39.3342 16.9233C40.2782 16.7971 41.1882 16.5026 42.0301 16.065C42.7955 15.6611 43.4844 15.131 44.0712 14.4915C44.624 13.894 45.0577 13.1956 45.3639 12.4467C45.6616 11.6978 45.8146 10.8984 45.8146 10.0905C45.8146 9.03869 45.5765 8.20563 45.1003 7.10329H46.8607V3.52701H40.8395C39.9465 3.23249 38.9855 3.09785 38.033 3.11468ZM38.2626 22.4182C39.4192 22.4182 40.3632 22.5865 41.0946 22.9147C41.826 23.2428 42.1917 23.7646 42.2002 24.4882C42.2002 25.2035 41.843 25.7336 41.1286 26.0702C40.4143 26.4068 39.4618 26.5751 38.2626 26.5751C37.089 26.5751 36.128 26.3984 35.3796 26.0534C34.6312 25.7084 34.2655 25.1782 34.2655 24.4882C34.2655 23.8066 34.6227 23.2933 35.337 22.9483C36.0514 22.5949 37.0295 22.4182 38.2626 22.4182ZM41.3668 10.0989C41.3668 10.5365 41.2817 10.9741 41.1031 11.378C40.933 11.7651 40.6949 12.1185 40.3973 12.4214C40.0996 12.7244 39.7424 12.96 39.3512 13.1283C38.9515 13.305 38.5178 13.3975 38.0755 13.3891C37.6418 13.3891 37.208 13.305 36.8083 13.1283C36.4256 12.96 36.0769 12.7159 35.7793 12.4214C35.4816 12.1185 35.235 11.7651 35.0734 11.378C34.8948 10.9741 34.8098 10.5365 34.8098 10.0989C34.8098 9.66138 34.8948 9.23223 35.0734 8.83673C35.4136 8.06257 36.0344 7.4483 36.8168 7.09487C37.2166 6.91816 37.6418 6.8256 38.084 6.83402C38.5263 6.83402 38.96 6.91816 39.3597 7.09487C39.7509 7.26317 40.1081 7.5072 40.4058 7.80172C40.7034 8.09623 40.9415 8.44965 41.1116 8.83673C41.2732 9.24064 41.3668 9.6698 41.3668 10.0989Z" fill="#020228"/>
<path d="M61.922 4.92996C61.2757 4.34093 60.5103 3.88653 59.6853 3.60884C58.8434 3.32274 57.9504 3.17969 57.0574 3.17969C56.6237 3.17969 56.19 3.22176 55.7647 3.30591C55.3225 3.39006 54.8803 3.50786 54.455 3.66774C54.0298 3.82762 53.6216 4.02116 53.2219 4.25678C52.8562 4.46715 52.5245 4.72801 52.2268 5.03094L52.1928 3.50786H47.7109V21.3977H52.1588V8.47258C52.6861 7.97611 53.3069 7.59745 53.9873 7.345C54.6336 7.10939 55.314 6.99158 56.0029 6.99158C56.4621 6.99158 56.9129 7.06732 57.3381 7.21878C57.7633 7.37025 58.146 7.61428 58.4692 7.92562C58.8009 8.24539 58.9965 8.64088 59.1921 9.12894C59.3877 9.61699 59.3877 10.1724 59.3877 10.8035V21.3893H63.8441V10.5931C63.8441 9.29723 63.759 8.18648 63.3678 7.23561C62.9766 6.28474 62.5769 5.52741 61.922 4.92996Z" fill="#020228"/>
<path d="M31.9427 16.2655C32.9377 13.8925 32.9377 11.2334 31.9427 8.86047C31.4664 7.7413 30.769 6.73153 29.8931 5.89005C28.0561 4.1566 25.6153 3.18891 23.0809 3.19732C20.5551 3.18891 18.1313 4.16502 16.3283 5.92371C15.4523 6.78202 14.755 7.79179 14.2617 8.91096C13.7514 10.0638 13.4878 11.3092 13.4963 12.563C13.4793 15.0622 14.4913 17.4604 16.2943 19.2106C17.1703 20.0605 18.2078 20.7337 19.3474 21.1965C20.5296 21.6846 21.7967 21.9286 23.0809 21.9202C25.6153 21.9286 28.0646 20.9609 29.8931 19.2275C30.769 18.3776 31.4664 17.3762 31.9427 16.2655ZM27.8095 14.6751C27.5543 15.3146 27.1801 15.8952 26.7039 16.4001C26.2446 16.8882 25.6918 17.2837 25.071 17.5529C23.8038 18.1083 22.3665 18.1083 21.0994 17.5529C20.487 17.2752 19.9342 16.8882 19.475 16.4001C17.4594 14.2207 17.4594 10.88 19.475 8.70059C19.9342 8.21253 20.487 7.82545 21.1079 7.54776C22.375 6.99239 23.8123 6.99239 25.0795 7.54776C25.6918 7.82545 26.2446 8.21253 26.7039 8.70059C28.1837 10.3246 28.6174 12.6387 27.8095 14.6751Z" fill="#020228"/>
<path d="M73.25 21.895H76.5923L79.0331 19.4716L77.3662 17.8223L73.25 21.895Z" fill="#522ED8"/>
<path d="M13.6076 16.5013C13.5396 16.3583 13.4801 16.2068 13.429 16.0554C13.0293 16.5518 12.5361 16.9726 11.9833 17.2839C11.2434 17.7047 10.4099 17.9234 9.55946 17.915C8.8791 17.915 8.21574 17.772 7.59491 17.4859C6.98259 17.2082 6.43829 16.8127 5.97905 16.333C5.55382 15.8786 5.20514 15.3485 4.9585 14.7763C4.93299 14.7258 4.90748 14.6753 4.89047 14.6248C4.35468 13.2785 4.35468 11.7807 4.89047 10.4343C5.40074 9.17207 6.37026 8.15388 7.61192 7.57326C8.21574 7.28716 8.8876 7.13569 9.55946 7.14411C10.495 7.14411 11.2859 7.33765 11.9407 7.73314C11.9748 7.74997 12.0003 7.77521 12.0343 7.79204L15.0619 4.79638C14.5431 4.44296 13.9903 4.14844 13.4035 3.91283C12.1619 3.41636 10.8351 3.16391 9.49993 3.17233C8.21574 3.16391 6.94857 3.40794 5.76644 3.896C4.64384 4.3504 3.61479 5.032 2.75583 5.88189C1.90537 6.7402 1.2165 7.74156 0.748755 8.85231C0.246987 10.0135 -0.00814998 11.2674 0.000354561 12.5296C-0.0166545 14.4818 0.578664 16.392 1.70977 17.9908C2.02444 18.4367 2.37312 18.8491 2.76433 19.2277C3.63179 20.0692 4.66084 20.734 5.78344 21.18C6.95707 21.6512 8.21574 21.8952 9.48292 21.8868C10.8692 21.8868 12.2469 21.6175 13.5311 21.0874C14.3645 20.7424 15.1384 20.2796 15.8273 19.7074L15.8018 19.6821C14.8748 18.7818 14.1264 17.6962 13.6076 16.5013Z" fill="#020228"/>
<path d="M93.0999 14.4555C92.7937 13.858 92.377 13.3279 91.8667 12.8903C91.3224 12.4107 90.7186 11.9984 90.0637 11.6786C89.3664 11.3252 88.635 11.0391 87.8866 10.8119C87.8611 10.8035 87.8271 10.7951 87.8015 10.7866C86.6619 10.4501 85.7775 10.1135 85.1651 9.76846C84.5358 9.42345 84.2126 9.01113 84.2211 8.5399C84.2211 8.27904 84.3062 8.0266 84.4678 7.81623C84.6378 7.59745 84.859 7.42074 85.1056 7.29452C85.3692 7.15988 85.6584 7.0589 85.9475 6.98317C86.2282 6.91585 86.5088 6.88219 86.798 6.87378C87.5634 6.86536 88.3118 7.0589 88.9752 7.42915C89.4344 7.69001 89.8596 8.00977 90.2423 8.38002L92.9298 5.72095C91.2629 4.02958 89.1793 3.17969 86.6874 3.17969C85.8285 3.17969 84.978 3.30591 84.1616 3.54994C83.3622 3.77714 82.6138 4.13897 81.9334 4.6102C81.2871 5.0646 80.7428 5.65363 80.343 6.33523C79.9348 7.04207 79.7222 7.84148 79.7392 8.65771C79.7392 9.44029 79.8923 10.1219 80.207 10.7193C80.5216 11.3168 80.9469 11.8553 81.4486 12.3013C81.9844 12.7725 82.5797 13.168 83.2261 13.471C83.6513 13.6729 84.0936 13.858 84.5358 14.0179C84.7824 14.1021 85.0291 14.1862 85.2757 14.262C86.4748 14.607 87.4103 14.9688 88.0737 15.3222C88.737 15.6756 89.0687 16.13 89.0687 16.6602C89.0687 17.1735 88.8306 17.5605 88.3628 17.813C87.8951 18.0739 87.3083 18.2001 86.6024 18.2001C85.8115 18.2001 85.0291 18.0065 84.3317 17.6279C83.9405 17.4091 83.5663 17.1482 83.2346 16.8537C82.9624 16.6097 82.7073 16.3488 82.4862 16.0627L79.7647 18.7554C79.9944 19.0416 80.2325 19.3192 80.4961 19.5717C81.1595 20.2449 81.9419 20.7834 82.8094 21.1705C84.0085 21.6838 85.2927 21.9446 86.6024 21.9278C87.4358 21.9278 88.2693 21.8016 89.0687 21.5744C89.8681 21.3556 90.6335 21.0022 91.3139 20.531C91.9688 20.0766 92.5216 19.4875 92.9383 18.8059C93.3635 18.0907 93.5761 17.2744 93.5591 16.4498C93.5676 15.7514 93.4145 15.0698 93.0999 14.4555Z" fill="#020228"/>
<path d="M65.2481 3.50781H64.6953V21.3976L69.1432 16.9967V15.3979V13.6897V11.5019V8.46412V3.96221V3.81075V3.62562V3.50781H65.2481Z" fill="#020228"/>
<path d="M79.1602 3.50896H74.4317V0H69.9668V16.1816L74.4317 11.7723V7.64062H79.1602V3.50896Z" fill="#020228"/>
</svg>
